<svg xmlns="http://www.w3.org/2000/svg" width="137.843" height="27.719" viewBox="0 0 137.843 27.719">
  <g id="Group_76" data-name="Group 76" transform="translate(-335.918 -415)">
    <path id="Path_227" data-name="Path 227" d="M531.571,459.456a8.067,8.067,0,0,1,3.029-3.078,8.355,8.355,0,0,1,4.261-1.11,8.647,8.647,0,0,1,4.8,1.328,7.611,7.611,0,0,1,2.993,3.766h-2.631a5.286,5.286,0,0,0-2.016-2.341,5.836,5.836,0,0,0-3.15-.821,6.137,6.137,0,0,0-3.162.821,5.741,5.741,0,0,0-2.2,2.329,8.194,8.194,0,0,0,0,7.049,5.736,5.736,0,0,0,2.2,2.33,6.134,6.134,0,0,0,3.162.821,5.9,5.9,0,0,0,3.15-.809,5.209,5.209,0,0,0,2.016-2.329h2.631a7.553,7.553,0,0,1-2.993,3.73,8.7,8.7,0,0,1-4.8,1.316,8.422,8.422,0,0,1-4.261-1.1,8,8,0,0,1-3.029-3.054,9.366,9.366,0,0,1,0-8.847Z" transform="translate(-172.982 -35.82)" fill="#fff"/>
    <path id="Path_228" data-name="Path 228" d="M690.165,491.055a5.956,5.956,0,0,1,2.257-2.378,6.19,6.19,0,0,1,3.2-.845,5.872,5.872,0,0,1,3.017.748,4.992,4.992,0,0,1,1.907,1.883v-2.414h2.221v13.229h-2.221v-2.462a5.178,5.178,0,0,1-1.943,1.919,5.813,5.813,0,0,1-3.005.76,5.994,5.994,0,0,1-3.186-.869,6.089,6.089,0,0,1-2.245-2.438,7.591,7.591,0,0,1-.821-3.573,7.43,7.43,0,0,1,.821-3.561Zm9.777.977a4.268,4.268,0,0,0-1.63-1.7,4.62,4.62,0,0,0-4.5-.012,4.2,4.2,0,0,0-1.617,1.69,5.378,5.378,0,0,0-.6,2.607,5.5,5.5,0,0,0,.6,2.643,4.265,4.265,0,0,0,1.617,1.714,4.371,4.371,0,0,0,2.245.591,4.437,4.437,0,0,0,2.257-.591,4.243,4.243,0,0,0,1.63-1.714,5.452,5.452,0,0,0,.6-2.619,5.383,5.383,0,0,0-.6-2.607Z" transform="translate(-314.316 -64.787)" fill="#fff"/>
    <path id="Path_229" data-name="Path 229" d="M829.055,500.976a4.6,4.6,0,0,1-1.907-1.448,3.851,3.851,0,0,1-.772-2.136h2.269a2.225,2.225,0,0,0,.929,1.617,3.535,3.535,0,0,0,2.185.628,3.178,3.178,0,0,0,1.979-.555,1.7,1.7,0,0,0,.724-1.4,1.381,1.381,0,0,0-.772-1.292,10.876,10.876,0,0,0-2.39-.833,17.5,17.5,0,0,1-2.4-.785,4.257,4.257,0,0,1-1.593-1.183,3.085,3.085,0,0,1-.664-2.064,3.128,3.128,0,0,1,.6-1.859,4.09,4.09,0,0,1,1.714-1.34,6.171,6.171,0,0,1,2.535-.495,5.414,5.414,0,0,1,3.549,1.11,4,4,0,0,1,1.448,3.042h-2.2a2.271,2.271,0,0,0-.833-1.666,3.106,3.106,0,0,0-2.04-.628,3.146,3.146,0,0,0-1.883.507,1.567,1.567,0,0,0-.7,1.328,1.455,1.455,0,0,0,.422,1.074,3.081,3.081,0,0,0,1.062.676,18.16,18.16,0,0,0,1.774.567,19.16,19.16,0,0,1,2.317.76,4.061,4.061,0,0,1,1.533,1.122,3,3,0,0,1,.664,1.955,3.35,3.35,0,0,1-.6,1.955,4.025,4.025,0,0,1-1.7,1.364,6.086,6.086,0,0,1-2.523.495,6.845,6.845,0,0,1-2.728-.519Z" transform="translate(-436.213 -64.787)" fill="#fff"/>
    <path id="Path_230" data-name="Path 230" d="M944.7,452.87a4.546,4.546,0,0,1,1.9,1.919,6.5,6.5,0,0,1,.688,3.114v7.8h-2.173v-7.483a4.255,4.255,0,0,0-.99-3.03,3.537,3.537,0,0,0-2.7-1.05,3.62,3.62,0,0,0-2.764,1.086,4.437,4.437,0,0,0-1.026,3.162V465.7h-2.2V447.837h2.2v6.518a4.328,4.328,0,0,1,1.8-1.569A5.823,5.823,0,0,1,942,452.23a5.686,5.686,0,0,1,2.7.64Z" transform="translate(-533.223 -29.21)" fill="#fff"/>
    <path id="Path_231" data-name="Path 231" d="M1074.792,466.142a4.4,4.4,0,0,1,1.207,1.5,4.354,4.354,0,0,1-.205,4.212,4.425,4.425,0,0,1-1.895,1.617,6.764,6.764,0,0,1-2.933.591h-6.276V457.234h6.035a6.833,6.833,0,0,1,2.921.567,4.141,4.141,0,0,1,1.811,1.533,4.019,4.019,0,0,1,.6,2.173,3.752,3.752,0,0,1-.809,2.474,4.527,4.527,0,0,1-2.136,1.412,3.558,3.558,0,0,1,1.678.748Zm-7.906-1.642h3.693a3.564,3.564,0,0,0,2.39-.724,2.8,2.8,0,0,0,0-4.007,3.644,3.644,0,0,0-2.438-.724h-3.645V464.5Zm6.445,6.977a2.657,2.657,0,0,0,.917-2.149,2.73,2.73,0,0,0-.965-2.209,3.894,3.894,0,0,0-2.583-.809h-3.814v5.938h3.886a3.856,3.856,0,0,0,2.559-.772Z" transform="translate(-648.204 -37.569)" fill="#fff"/>
    <path id="Path_232" data-name="Path 232" d="M1197.208,495.484h-10.574a4.158,4.158,0,0,0,4.3,4.152,4.06,4.06,0,0,0,2.378-.664,3.514,3.514,0,0,0,1.34-1.774h2.366a5.692,5.692,0,0,1-2.124,3.1,6.415,6.415,0,0,1-3.959,1.195,6.685,6.685,0,0,1-3.367-.845,5.978,5.978,0,0,1-2.329-2.4,7.445,7.445,0,0,1-.845-3.609,7.556,7.556,0,0,1,.821-3.6,5.762,5.762,0,0,1,2.305-2.378,6.861,6.861,0,0,1,3.416-.833,6.641,6.641,0,0,1,3.331.821,5.684,5.684,0,0,1,2.233,2.257,6.666,6.666,0,0,1,.784,3.247,13.14,13.14,0,0,1-.072,1.328Zm-2.752-3.947a3.614,3.614,0,0,0-1.509-1.376,4.706,4.706,0,0,0-2.112-.471,4.072,4.072,0,0,0-2.836,1.062,4.325,4.325,0,0,0-1.34,2.945h8.352a4.057,4.057,0,0,0-.555-2.161Z" transform="translate(-754.683 -64.787)" fill="#fff"/>
    <path id="Path_233" data-name="Path 233" d="M1320.464,488.241a5.113,5.113,0,0,1,2.62-.628v2.269h-.58q-3.693,0-3.694,4.007v7.194h-2.2V487.854h2.2V490a4.22,4.22,0,0,1,1.653-1.762Z" transform="translate(-872.303 -64.593)" fill="#fff"/>
    <path id="Path_234" data-name="Path 234" d="M1397.395,488.241a5.108,5.108,0,0,1,2.619-.628v2.269h-.58q-3.693,0-3.692,4.007v7.194h-2.2V487.854h2.2V490a4.207,4.207,0,0,1,1.654-1.762Z" transform="translate(-940.735 -64.593)" fill="#fff"/>
    <path id="Path_235" data-name="Path 235" d="M1478.847,489.8l-7.966,19.457h-2.27l2.608-6.373-5.335-13.084h2.438l4.152,10.718,4.1-10.718Z" transform="translate(-1005.085 -66.537)" fill="#fff"/>
    <path id="Path_236" data-name="Path 236" d="M336.252,520.273s-2.093,7.849,5.768,10.362c0,0,7.071,2.136,10.221-5.532l-15.989-4.83Z" transform="translate(0 -93.645)" fill="#fff"/>
    <path id="Subtraction_2" data-name="Subtraction 2" d="M16.033,11.9h0l-.572-.173L0,6.988,1.135,3.23l.012,0a4.989,4.989,0,0,1,8.977-.762,4.972,4.972,0,0,1,3.634-.294,4.99,4.99,0,0,1,3.388,6.028l0,0L16.034,11.9ZM4.733,1.142A1.141,1.141,0,1,0,5.874,2.283,1.142,1.142,0,0,0,4.733,1.142Z" transform="translate(336.541 418.683)" fill="#fff" stroke="rgba(0,0,0,0)" stroke-miterlimit="10" stroke-width="1"/>
    <path id="Path_238" data-name="Path 238" d="M438.423,438.022a2.9,2.9,0,0,0-.084.489c.04.013.081.025.122.036a2.87,2.87,0,0,0,3.594-2.535c-.04-.013-.081-.025-.122-.036a2.873,2.873,0,0,0-3.51,2.045Z" transform="translate(-91.036 -18.574)" fill="#fff"/>
    <path id="Path_239" data-name="Path 239" d="M412.721,415.185a3.459,3.459,0,0,0-.565-.185c-.022.046-.043.092-.064.139a3.439,3.439,0,0,0,2.375,4.7c.022-.046.043-.092.064-.139a3.442,3.442,0,0,0-1.81-4.518Z" transform="translate(-67.441)" fill="#fff"/>
  </g>
</svg>
